<svg version="1.1" xmlns="http://www.w3.org/2000/svg" viewBox="0 0 436 498.40003967285156" width="872" height="996.8000793457031">
  <!-- svg-source:excalidraw -->
  
  <defs>
    <style class="style-fonts">
      @font-face {
        font-family: "Virgil";
        src: url("https://excalidraw.com/Virgil.woff2");
      }
      @font-face {
        font-family: "Cascadia";
        src: url("https://excalidraw.com/Cascadia.woff2");
      }
      @font-face {
        font-family: "Assistant";
        src: url("https://excalidraw.com/Assistant-Regular.woff2");
      }
    </style>
    
  </defs>
  <rect x="0" y="0" width="436" height="498.40003967285156" fill="#ffffff"></rect><g transform="translate(186 111.60003662109375) rotate(0 39.199981689453125 77.5999755859375)" stroke="none"><path fill="#1e1e1e" d="M 0,4.07 Q 0,4.07 -3.44,4.06 -6.89,4.05 -9.32,4.38 -11.75,4.72 -13.94,5.33 -16.13,5.94 -19.27,6.96 -22.42,7.98 -25.79,8.94 -29.17,9.90 -32.31,10.94 -35.46,11.99 -39.23,13.55 -43.00,15.11 -45.91,16.77 -48.82,18.42 -51.48,20.55 -54.14,22.68 -56.14,24.61 -58.15,26.54 -59.38,28.47 -60.61,30.41 -61.47,32.94 -62.33,35.47 -62.90,37.77 -63.46,40.07 -63.91,42.72 -64.35,45.38 -64.46,47.56 -64.56,49.74 -64.81,51.85 -65.06,53.97 -65.11,56.13 -65.17,58.29 -65.20,60.85 -65.23,63.40 -65.20,65.65 -65.17,67.89 -65.23,70.90 -65.29,73.91 -64.86,76.15 -64.43,78.39 -63.87,82.47 -63.31,86.56 -62.44,90.29 -61.57,94.03 -60.62,98.24 -59.68,102.46 -57.80,107.27 -55.92,112.09 -54.40,115.83 -52.87,119.58 -50.79,123.05 -48.71,126.53 -46.63,128.73 -44.55,130.93 -42.60,133.06 -40.64,135.18 -38.13,137.90 -35.62,140.61 -33.32,142.87 -31.02,145.13 -29.27,147.45 -27.53,149.76 -25.57,151.42 -23.61,153.08 -21.81,154.90 -20.00,156.71 -16.38,157.95 -12.76,159.18 -10.16,159.90 -7.55,160.61 -4.31,161.01 -1.06,161.40 2.23,161.58 5.53,161.76 8.55,161.80 11.56,161.84 14.90,161.90 18.25,161.96 21.28,161.94 24.31,161.93 28.13,162.06 31.95,162.19 35.27,161.99 38.60,161.79 41.75,161.65 44.90,161.50 48.91,161.40 52.92,161.30 55.84,161.08 58.77,160.87 61.31,160.31 63.85,159.76 66.25,159.03 68.65,158.30 71.03,157.50 73.40,156.70 77.06,155.80 80.72,154.89 83.57,153.99 86.41,153.08 89.27,152.20 92.12,151.32 95.22,150.49 98.32,149.66 100.75,148.66 103.18,147.66 105.42,146.39 107.66,145.12 109.80,143.82 111.94,142.52 113.82,141.13 115.71,139.74 118.44,137.84 121.17,135.94 123.87,134.28 126.58,132.63 129.03,130.64 131.49,128.66 133.55,126.93 135.61,125.20 137.90,121.71 140.20,118.22 141.07,115.56 141.94,112.90 142.56,110.13 143.18,107.37 143.52,104.14 143.86,100.91 143.92,98.32 143.97,95.72 143.93,93.49 143.89,91.26 143.70,88.44 143.52,85.62 143.20,82.82 142.89,80.03 141.74,75.73 140.60,71.42 139.43,67.59 138.27,63.75 137.18,60.75 136.10,57.75 134.63,55.19 133.17,52.63 131.64,50.78 130.11,48.93 128.34,47.06 126.57,45.19 123.78,43.00 120.99,40.81 118.85,39.14 116.70,37.48 114.91,36.17 113.11,34.87 111.03,33.02 108.95,31.17 106.36,28.41 103.77,25.64 101.46,23.74 99.15,21.85 96.57,19.84 93.99,17.84 90.46,15.54 86.93,13.24 83.09,11.55 79.24,9.86 74.67,8.39 70.09,6.92 66.55,5.63 63.01,4.34 60.34,3.47 57.67,2.60 54.36,1.52 51.05,0.44 48.06,-0.68 45.07,-1.82 42.21,-2.94 39.36,-4.07 36.99,-4.62 34.62,-5.17 30.92,-5.64 27.22,-6.10 24.52,-6.02 21.82,-5.94 19.62,-5.80 17.43,-5.66 15.24,-5.50 13.05,-5.34 10.73,-5.21 8.42,-5.07 5.93,-3.52 3.44,-1.96 1.06,-0.66 -1.32,0.63 -3.96,1.63 -6.60,2.63 -6.55,2.79 -6.50,2.95 -7.34,2.93 -8.18,2.91 -9.00,2.69 -9.81,2.47 -10.55,2.07 -11.28,1.66 -11.90,1.09 -12.52,0.52 -12.98,-0.18 -13.45,-0.88 -13.73,-1.67 -14.01,-2.47 -14.09,-3.30 -14.18,-4.14 -14.06,-4.98 -13.94,-5.81 -13.62,-6.59 -13.31,-7.37 -12.82,-8.05 -12.32,-8.74 -11.68,-9.28 -11.04,-9.83 -10.29,-10.20 -9.53,-10.58 -8.71,-10.76 -7.89,-10.95 -6.41,-10.77 -4.92,-10.60 -3.93,-10.06 -2.93,-9.53 -2.16,-8.70 -1.39,-7.88 -0.92,-6.85 -0.45,-5.82 -0.34,-4.69 -0.22,-3.57 -0.47,-2.47 -0.72,-1.37 -1.31,-0.40 -1.90,0.55 -2.77,1.28 -3.63,2.00 -4.69,2.42 -5.74,2.83 -6.87,2.88 -8.00,2.93 -9.08,2.62 -10.17,2.31 -11.10,1.67 -12.03,1.03 -12.71,0.13 -13.39,-0.77 -13.74,-1.84 -14.10,-2.91 -14.09,-4.04 -14.08,-5.17 -13.71,-6.24 -13.34,-7.31 -12.65,-8.20 -11.96,-9.10 -11.02,-9.73 -10.08,-10.35 -8.99,-10.65 -7.90,-10.94 -6.77,-10.87 -5.65,-10.81 -4.60,-10.38 -3.55,-9.96 -2.70,-9.22 -1.84,-8.48 -1.26,-7.51 -0.69,-6.54 -0.45,-5.43 -0.22,-4.33 -0.35,-3.20 -0.48,-2.08 -0.96,-1.06 -1.44,-0.04 -2.22,0.77 -3.01,1.58 -4.01,2.11 -5.01,2.63 -6.13,2.80 -7.24,2.98 -6.87,2.96 -6.50,2.94 -7.34,2.93 -8.18,2.91 -9.00,2.69 -9.81,2.47 -10.55,2.07 -11.28,1.66 -11.90,1.09 -12.52,0.52 -12.98,-0.18 -13.45,-0.88 -13.73,-1.67 -14.01,-2.47 -14.09,-3.30 -14.18,-4.14 -14.06,-4.98 -13.94,-5.81 -13.63,-6.59 -13.31,-7.37 -12.82,-8.05 -12.32,-8.74 -11.68,-9.28 -11.04,-9.83 -10.29,-10.20 -9.53,-10.58 -8.71,-10.76 -7.89,-10.95 -8.22,-10.96 -8.56,-10.98 -6.55,-11.72 -4.55,-12.46 -1.28,-13.90 1.98,-15.34 4.98,-16.33 7.99,-17.32 10.52,-17.18 13.06,-17.04 15.28,-16.87 17.51,-16.70 19.83,-16.52 22.14,-16.33 25.23,-15.97 28.31,-15.61 30.63,-15.20 32.95,-14.80 34.96,-14.12 36.98,-13.45 39.76,-12.53 42.54,-11.62 45.31,-10.38 48.08,-9.13 50.74,-7.93 53.41,-6.74 56.90,-5.58 60.40,-4.43 62.92,-3.30 65.45,-2.16 68.72,-0.89 72.00,0.37 76.96,1.68 81.93,2.98 86.45,4.56 90.98,6.15 95.24,8.32 99.51,10.48 102.28,12.49 105.05,14.50 107.75,16.64 110.45,18.77 113.17,21.16 115.88,23.56 117.62,25.18 119.36,26.81 121.13,28.27 122.91,29.72 124.83,31.32 126.76,32.91 128.56,34.41 130.36,35.91 131.79,37.60 133.22,39.30 135.11,41.56 137.00,43.81 138.66,46.25 140.31,48.70 142.02,51.91 143.72,55.13 144.70,58.15 145.67,61.17 147.17,64.99 148.67,68.81 150.56,73.88 152.44,78.94 152.77,81.95 153.09,84.96 153.32,88.22 153.55,91.48 153.41,93.81 153.26,96.15 153.07,98.89 152.88,101.63 152.66,105.53 152.43,109.43 151.71,112.62 150.99,115.81 149.79,119.59 148.58,123.38 146.98,125.81 145.37,128.25 143.43,130.36 141.48,132.48 139.42,134.05 137.35,135.62 134.43,138.17 131.50,140.72 129.13,142.14 126.75,143.56 124.02,145.66 121.29,147.76 118.99,149.29 116.68,150.82 114.38,152.06 112.08,153.29 109.29,154.74 106.50,156.19 103.57,157.27 100.65,158.34 97.66,159.14 94.66,159.94 91.83,160.74 89.00,161.53 86.04,162.40 83.08,163.27 79.57,164.39 76.06,165.50 73.48,166.19 70.90,166.89 68.13,167.51 65.36,168.14 62.23,168.60 59.11,169.06 56.27,169.08 53.44,169.09 49.30,169.53 45.17,169.98 42.16,170.02 39.15,170.07 35.54,170.33 31.94,170.58 28.11,170.71 24.28,170.83 21.23,170.79 18.18,170.76 14.78,170.77 11.38,170.78 8.28,170.69 5.17,170.61 1.65,170.51 -1.86,170.41 -6.01,170.14 -10.15,169.88 -13.04,169.03 -15.93,168.19 -18.34,167.21 -20.74,166.24 -23.58,164.50 -26.41,162.77 -27.87,160.99 -29.32,159.22 -31.79,156.76 -34.26,154.30 -35.36,152.34 -36.46,150.37 -38.68,147.97 -40.90,145.58 -43.62,142.74 -46.33,139.90 -48.02,137.62 -49.71,135.35 -51.86,132.60 -54.02,129.86 -56.51,126.02 -58.99,122.19 -60.63,118.47 -62.27,114.76 -64.58,109.60 -66.89,104.45 -68.23,100.35 -69.57,96.26 -70.83,92.35 -72.09,88.44 -73.30,84.27 -74.50,80.11 -74.99,77.00 -75.47,73.90 -75.51,70.84 -75.55,67.78 -75.46,65.48 -75.38,63.18 -75.30,60.45 -75.21,57.72 -74.58,53.28 -73.95,48.84 -73.61,46.28 -73.26,43.72 -72.64,40.64 -72.01,37.55 -71.15,35.00 -70.28,32.45 -68.86,28.97 -67.44,25.50 -65.46,23.05 -63.48,20.60 -61.17,18.70 -58.87,16.81 -55.73,14.27 -52.59,11.73 -49.42,9.98 -46.26,8.22 -42.22,6.10 -38.18,3.97 -34.87,2.82 -31.56,1.68 -28.40,0.73 -25.24,-0.20 -21.67,-1.49 -18.09,-2.79 -15.30,-3.29 -12.51,-3.80 -9.70,-3.92 -6.90,-4.05 -3.45,-4.06 0,-4.07 0.48,-4.01 0.97,-3.95 1.43,-3.77 1.89,-3.60 2.29,-3.32 2.69,-3.04 3.02,-2.67 3.34,-2.31 3.57,-1.87 3.80,-1.44 3.92,-0.96 4.04,-0.49 4.04,0.00 4.04,0.49 3.92,0.96 3.80,1.44 3.57,1.87 3.34,2.31 3.02,2.67 2.69,3.04 2.29,3.32 1.89,3.60 1.43,3.77 0.97,3.95 0.48,4.01 -0.00,4.07 -0.00,4.07 L 0,4.07 Z"></path></g><g transform="translate(157.20001220703125 170.8000030517578) rotate(0 0.00004999999998744897 0.00004999999998744897)" stroke="none"><path fill="#1e1e1e" d="M 3.14,-3.14 Q 3.14,-3.14 3.55,-2.55 3.97,-1.97 4.18,-1.28 4.40,-0.59 4.38,0.11 4.36,0.83 4.11,1.51 3.86,2.18 3.41,2.74 2.96,3.30 2.36,3.69 1.75,4.08 1.05,4.25 0.36,4.42 -0.35,4.36 -1.07,4.31 -1.73,4.02 -2.39,3.74 -2.92,3.26 -3.46,2.78 -3.81,2.15 -4.16,1.53 -4.30,0.82 -4.43,0.11 -4.34,-0.59 -4.24,-1.30 -3.92,-1.94 -3.60,-2.59 -3.09,-3.09 -2.59,-3.60 -1.94,-3.92 -1.30,-4.24 -0.59,-4.34 0.12,-4.43 0.82,-4.30 1.53,-4.16 2.15,-3.81 2.78,-3.46 3.26,-2.92 3.74,-2.39 4.02,-1.73 4.31,-1.07 4.36,-0.35 4.42,0.36 4.25,1.05 4.07,1.75 3.69,2.36 3.30,2.96 2.74,3.41 2.18,3.86 1.51,4.11 0.83,4.36 0.11,4.38 -0.60,4.40 -1.28,4.18 -1.97,3.97 -2.55,3.55 -3.14,3.13 -3.14,3.14 -3.14,3.14 -3.47,2.71 -3.80,2.29 -4.02,1.80 -4.24,1.32 -4.33,0.79 -4.43,0.26 -4.40,-0.26 -4.36,-0.80 -4.20,-1.31 -4.04,-1.82 -3.77,-2.28 -3.49,-2.73 -3.11,-3.11 -2.73,-3.49 -2.28,-3.77 -1.82,-4.05 -1.31,-4.20 -0.80,-4.36 -0.26,-4.40 0.26,-4.43 0.79,-4.33 1.32,-4.24 1.80,-4.02 2.29,-3.80 2.71,-3.47 3.14,-3.14 3.14,-3.14 L 3.14,-3.14 Z"></path></g><g transform="translate(266.79998779296875 174.00001525878906) rotate(0 0.79998779296875 -3.600006103515625)" stroke="none"><path fill="#1e1e1e" d="M -4.82,-0.60 Q -4.82,-0.60 -4.69,-2.45 -4.56,-4.30 -1.23,-7.72 2.08,-11.14 4.46,-9.07 6.85,-7.00 6.02,-2.73 5.20,1.54 4.82,2.33 4.43,3.12 3.82,3.74 3.20,4.37 2.42,4.77 1.64,5.17 0.77,5.29 -0.09,5.42 -0.95,5.26 -1.82,5.11 -2.58,4.68 -3.35,4.26 -3.95,3.61 -4.54,2.96 -4.89,2.16 -5.25,1.36 -5.33,0.48 -5.41,-0.38 -5.20,-1.24 -5.00,-2.09 -4.54,-2.83 -4.07,-3.58 -3.39,-4.14 -2.71,-4.69 -1.89,-5.00 -1.07,-5.31 -0.19,-5.35 0.68,-5.38 1.52,-5.13 2.36,-4.88 3.08,-4.37 3.79,-3.87 4.31,-3.16 4.83,-2.45 5.10,-1.62 5.36,-0.78 5.35,0.09 5.33,0.97 5.04,1.79 4.74,2.62 4.20,3.31 3.66,4.00 2.92,4.48 2.19,4.96 1.34,5.18 0.49,5.40 -0.38,5.34 -1.25,5.27 -2.06,4.93 -2.87,4.60 -3.53,4.02 -4.19,3.44 -4.63,2.68 -5.07,1.92 -5.24,1.05 -5.42,0.19 -5.31,-0.67 -5.20,-1.54 -5.20,-1.54 -5.20,-1.54 -4.50,-3.23 -3.79,-4.93 -1.74,-3.45 0.31,-1.98 2.89,-2.51 5.48,-3.05 5.15,-1.22 4.82,0.60 4.68,1.17 4.54,1.74 4.26,2.25 3.99,2.77 3.60,3.21 3.21,3.65 2.72,3.98 2.24,4.31 1.69,4.52 1.14,4.72 0.56,4.79 -0.01,4.86 -0.59,4.79 -1.18,4.71 -1.72,4.50 -2.27,4.29 -2.75,3.96 -3.23,3.62 -3.62,3.18 -4.01,2.74 -4.28,2.22 -4.55,1.70 -4.69,1.13 -4.83,0.56 -4.82,-0.01 -4.82,-0.60 -4.82,-0.60 L -4.82,-0.60 Z"></path></g><g transform="translate(187.5999755859375 234.00001525878906) rotate(0 49.20001220703125 -5.1999969482421875)" stroke="none"><path fill="#1e1e1e" d="M -0.71,-4.98 Q -0.71,-4.98 2.51,-5.37 5.74,-5.76 8.72,-6.17 11.70,-6.58 14.32,-7.02 16.93,-7.46 19.76,-8.04 22.59,-8.63 24.72,-9.19 26.85,-9.76 29.23,-10.10 31.60,-10.43 34.02,-10.58 36.44,-10.73 38.92,-11.42 41.40,-12.10 44.44,-12.98 47.48,-13.86 50.64,-14.73 53.79,-15.61 57.24,-16.02 60.68,-16.43 63.05,-16.56 65.41,-16.68 67.91,-16.75 70.41,-16.82 73.56,-16.91 76.70,-16.99 79.42,-16.61 82.15,-16.23 84.96,-15.63 87.78,-15.03 91.39,-14.13 95.00,-13.23 97.47,-12.80 99.94,-12.36 100.98,-11.94 102.02,-11.51 102.87,-10.78 103.72,-10.05 104.29,-9.08 104.86,-8.11 105.09,-7.02 105.33,-5.92 105.20,-4.80 105.07,-3.69 104.59,-2.67 104.11,-1.66 103.33,-0.85 102.55,-0.04 101.56,0.47 100.56,0.99 99.45,1.16 98.34,1.33 97.23,1.14 96.13,0.95 95.14,0.42 94.15,-0.10 93.39,-0.92 92.62,-1.75 92.16,-2.77 91.69,-3.79 91.58,-4.91 91.47,-6.03 91.72,-7.12 91.97,-8.21 92.56,-9.17 93.14,-10.13 94.00,-10.85 94.86,-11.57 95.91,-11.98 96.96,-12.38 98.08,-12.44 99.20,-12.49 100.28,-12.18 101.36,-11.87 102.28,-11.23 103.21,-10.59 103.88,-9.70 104.55,-8.80 104.90,-7.73 105.25,-6.66 105.24,-5.54 105.23,-4.42 104.87,-3.36 104.50,-2.30 103.81,-1.41 103.13,-0.52 102.19,0.09 101.26,0.72 100.17,1.01 99.09,1.30 97.97,1.23 96.85,1.16 96.85,1.16 96.85,1.16 93.48,0.25 90.12,-0.64 86.56,-1.46 83.01,-2.27 79.85,-3.03 76.70,-3.79 73.57,-3.88 70.44,-3.96 68.00,-4.01 65.56,-4.07 63.41,-4.11 61.27,-4.15 58.98,-4.08 56.69,-4.00 53.49,-3.29 50.29,-2.58 47.18,-1.93 44.08,-1.27 40.47,-0.73 36.87,-0.19 32.98,-0.07 29.09,0.04 26.86,0.47 24.63,0.91 21.54,1.59 18.44,2.27 15.76,2.65 13.08,3.04 10.10,3.48 7.13,3.92 3.92,4.45 0.71,4.98 0.10,5.00 -0.50,5.01 -1.09,4.88 -1.68,4.74 -2.23,4.47 -2.77,4.20 -3.23,3.81 -3.70,3.42 -4.05,2.92 -4.41,2.43 -4.63,1.87 -4.86,1.30 -4.95,0.70 -5.03,0.10 -4.97,-0.49 -4.91,-1.10 -4.71,-1.67 -4.51,-2.24 -4.17,-2.75 -3.84,-3.26 -3.39,-3.67 -2.94,-4.08 -2.41,-4.38 -1.88,-4.67 -1.29,-4.83 -0.71,-4.98 -0.71,-4.98 L -0.71,-4.98 Z"></path></g><g transform="translate(220.39996337890625 187.6000213623047) rotate(0 0.4000244140625 6.79998779296875)" stroke="none"><path fill="#1e1e1e" d="M 5.05,-0.72 Q 5.05,-0.72 5.36,0.87 5.68,2.47 6.04,4.77 6.40,7.06 6.56,10.33 6.73,13.59 6.58,14.54 6.42,15.49 5.97,16.34 5.52,17.19 4.83,17.85 4.13,18.51 3.26,18.91 2.38,19.32 1.43,19.42 0.47,19.52 -0.45,19.32 -1.39,19.11 -2.21,18.62 -3.04,18.12 -3.66,17.39 -4.28,16.66 -4.64,15.76 -4.99,14.87 -5.05,13.91 -5.10,12.95 -4.84,12.03 -4.58,11.10 -4.05,10.31 -3.51,9.51 -2.74,8.93 -1.98,8.35 -1.07,8.04 -0.16,7.74 0.79,7.74 1.76,7.74 2.67,8.04 3.58,8.35 4.34,8.93 5.11,9.51 5.64,10.31 6.18,11.10 6.44,12.03 6.70,12.95 6.65,13.91 6.59,14.87 6.24,15.76 5.88,16.66 5.26,17.39 4.64,18.12 3.82,18.62 2.99,19.11 2.05,19.32 1.12,19.52 0.16,19.42 -0.78,19.32 -1.66,18.91 -2.53,18.51 -3.22,17.85 -3.92,17.19 -4.37,16.34 -4.82,15.49 -4.98,14.54 -5.13,13.59 -5.13,13.60 -5.13,13.60 -5.02,10.92 -4.91,8.24 -4.84,6.10 -4.76,3.96 -4.90,2.34 -5.05,0.72 -5.06,0.10 -5.07,-0.50 -4.94,-1.10 -4.80,-1.70 -4.53,-2.25 -4.25,-2.80 -3.86,-3.27 -3.46,-3.74 -2.96,-4.10 -2.46,-4.46 -1.89,-4.69 -1.32,-4.92 -0.71,-5.01 -0.10,-5.10 0.50,-5.03 1.11,-4.97 1.69,-4.77 2.27,-4.56 2.78,-4.22 3.30,-3.88 3.71,-3.43 4.13,-2.98 4.43,-2.44 4.73,-1.90 4.89,-1.31 5.05,-0.72 5.05,-0.72 L 5.05,-0.72 Z"></path></g><g transform="translate(113.20001220703125 141.1999969482422) rotate(0 -39.20001220703125 -19.599998474121094)" stroke="none"><path fill="#1e1e1e" d="M -1.81,3.47 Q -1.81,3.47 -7.02,0.56 -12.23,-2.34 -17.83,-5.22 -23.43,-8.10 -29.45,-10.96 -35.48,-13.82 -41.96,-16.91 -48.44,-20.01 -53.25,-22.25 -58.05,-24.50 -61.36,-26.06 -64.66,-27.62 -67.90,-29.16 -71.13,-30.70 -73.34,-31.70 -75.55,-32.70 -76.95,-33.68 -78.35,-34.66 -78.95,-34.75 -79.55,-34.84 -80.08,-35.12 -80.62,-35.40 -81.04,-35.83 -81.46,-36.26 -81.72,-36.81 -81.98,-37.35 -82.05,-37.95 -82.13,-38.55 -82.00,-39.15 -81.88,-39.74 -81.57,-40.26 -81.27,-40.78 -80.81,-41.18 -80.36,-41.57 -79.80,-41.80 -79.24,-42.03 -78.64,-42.07 -78.03,-42.11 -77.45,-41.96 -76.87,-41.80 -76.36,-41.47 -75.86,-41.13 -75.49,-40.66 -75.12,-40.18 -74.92,-39.61 -74.72,-39.04 -74.71,-38.44 -74.70,-37.83 -74.89,-37.26 -75.08,-36.68 -75.44,-36.20 -75.80,-35.71 -76.29,-35.37 -76.79,-35.02 -77.37,-34.86 -77.95,-34.69 -78.55,-34.71 -79.16,-34.74 -79.72,-34.96 -80.28,-35.17 -80.75,-35.56 -81.21,-35.95 -81.53,-36.46 -81.85,-36.97 -81.98,-37.56 -82.12,-38.15 -82.06,-38.75 -82.00,-39.35 -81.76,-39.90 -81.51,-40.45 -81.10,-40.90 -80.69,-41.34 -80.16,-41.63 -79.63,-41.92 -79.03,-42.02 -78.44,-42.13 -78.44,-42.13 -78.44,-42.13 -75.21,-40.62 -71.98,-39.10 -70.09,-37.81 -68.19,-36.53 -65.02,-34.84 -61.85,-33.15 -58.75,-31.46 -55.65,-29.77 -50.78,-27.60 -45.92,-25.43 -39.40,-22.47 -32.87,-19.51 -26.69,-16.79 -20.51,-14.06 -14.72,-11.37 -8.92,-8.69 -3.55,-6.08 1.81,-3.47 2.20,-3.21 2.59,-2.94 2.90,-2.58 3.22,-2.23 3.44,-1.81 3.66,-1.39 3.77,-0.94 3.89,-0.48 3.89,-0.00 3.89,0.46 3.78,0.92 3.67,1.38 3.45,1.80 3.23,2.22 2.92,2.57 2.60,2.93 2.21,3.19 1.83,3.46 1.38,3.63 0.94,3.80 0.47,3.86 0.00,3.92 -0.46,3.86 -0.92,3.81 -1.37,3.64 -1.81,3.47 -1.81,3.47 L -1.81,3.47 Z"></path></g><g transform="translate(128.39996337890625 115.60003662109375) rotate(0 -7.5999755859375 -12.800018310546875)" stroke="none"><path fill="#1e1e1e" d="M -4.56,2.53 Q -4.56,2.53 -5.74,0.48 -6.92,-1.56 -8.73,-3.87 -10.54,-6.19 -11.65,-8.55 -12.77,-10.92 -14.92,-14.39 -17.07,-17.86 -18.48,-20.12 -19.88,-22.38 -20.09,-23.06 -20.30,-23.74 -20.34,-24.45 -20.38,-25.16 -20.25,-25.86 -20.12,-26.56 -19.82,-27.21 -19.53,-27.85 -19.08,-28.41 -18.64,-28.97 -18.08,-29.40 -17.52,-29.84 -16.87,-30.13 -16.22,-30.42 -15.52,-30.54 -14.82,-30.67 -14.11,-30.62 -13.40,-30.57 -12.72,-30.36 -12.04,-30.14 -11.44,-29.77 -10.83,-29.40 -10.33,-28.90 -9.83,-28.39 -9.46,-27.78 -9.10,-27.17 -7.58,-24.31 -6.05,-21.44 -5.70,-20.54 -5.35,-19.64 -5.30,-18.67 -5.26,-17.71 -5.52,-16.78 -5.79,-15.85 -6.34,-15.05 -6.88,-14.25 -7.66,-13.67 -8.43,-13.09 -9.35,-12.79 -10.27,-12.49 -11.24,-12.50 -12.20,-12.50 -13.12,-12.82 -14.03,-13.13 -14.80,-13.72 -15.56,-14.32 -16.10,-15.12 -16.64,-15.92 -16.89,-16.86 -17.14,-17.79 -17.08,-18.76 -17.02,-19.72 -16.66,-20.62 -16.29,-21.51 -15.66,-22.25 -15.03,-22.98 -14.20,-23.47 -13.37,-23.96 -12.42,-24.16 -11.48,-24.37 -10.52,-24.25 -9.55,-24.14 -8.68,-23.73 -7.81,-23.32 -7.11,-22.65 -6.41,-21.98 -5.96,-21.12 -5.52,-20.26 -5.37,-19.31 -5.22,-18.35 -5.38,-17.40 -5.54,-16.45 -6.00,-15.59 -6.46,-14.74 -7.17,-14.08 -7.88,-13.42 -8.76,-13.02 -9.64,-12.62 -10.60,-12.53 -11.56,-12.43 -12.50,-12.64 -13.45,-12.86 -14.27,-13.36 -15.10,-13.87 -15.72,-14.61 -16.34,-15.35 -16.34,-15.35 -16.34,-15.35 -18.11,-18.86 -19.88,-22.38 -20.09,-23.06 -20.30,-23.74 -20.34,-24.45 -20.38,-25.16 -20.25,-25.86 -20.12,-26.56 -19.82,-27.21 -19.53,-27.85 -19.08,-28.41 -18.64,-28.97 -18.08,-29.40 -17.52,-29.84 -16.87,-30.13 -16.22,-30.42 -15.52,-30.54 -14.82,-30.67 -14.11,-30.62 -13.40,-30.57 -12.72,-30.36 -12.04,-30.14 -11.44,-29.77 -10.83,-29.40 -10.33,-28.90 -9.83,-28.39 -9.46,-27.78 -9.10,-27.17 -8.39,-25.72 -7.69,-24.26 -6.16,-22.01 -4.63,-19.76 -2.96,-16.12 -1.30,-12.48 0.51,-9.59 2.32,-6.71 3.44,-4.62 4.56,-2.53 4.80,-1.95 5.04,-1.37 5.13,-0.74 5.22,-0.12 5.16,0.50 5.10,1.12 4.89,1.72 4.68,2.31 4.33,2.84 3.99,3.37 3.53,3.80 3.07,4.22 2.51,4.53 1.96,4.84 1.36,5.00 0.75,5.17 0.12,5.18 -0.50,5.20 -1.12,5.06 -1.73,4.92 -2.30,4.64 -2.86,4.37 -3.34,3.96 -3.82,3.55 -4.19,3.04 -4.56,2.53 -4.56,2.53 L -4.56,2.53 Z"></path></g><g transform="translate(176.39996337890625 110.80000305175781) rotate(0 -7.199981689453125 -50.400001525878906)" stroke="none"><path fill="#1e1e1e" d="M -3.58,1.19 Q -3.58,1.19 -5.05,-3.68 -6.51,-8.56 -7.80,-13.47 -9.08,-18.39 -10.31,-24.95 -11.53,-31.51 -12.72,-44.05 -13.91,-56.59 -14.62,-65.80 -15.34,-75.00 -15.85,-81.89 -16.37,-88.79 -16.75,-92.18 -17.14,-95.57 -17.46,-97.65 -17.79,-99.72 -17.74,-100.27 -17.70,-100.81 -17.48,-101.32 -17.27,-101.83 -16.90,-102.24 -16.53,-102.65 -16.05,-102.92 -15.57,-103.19 -15.03,-103.30 -14.49,-103.40 -13.94,-103.33 -13.40,-103.25 -12.90,-103.01 -12.41,-102.76 -12.02,-102.37 -11.63,-101.98 -11.39,-101.49 -11.14,-101.00 -11.07,-100.45 -10.99,-99.90 -11.09,-99.36 -11.20,-98.82 -11.47,-98.34 -11.74,-97.86 -12.15,-97.49 -12.56,-97.13 -13.07,-96.91 -13.57,-96.69 -14.12,-96.65 -14.67,-96.60 -15.20,-96.73 -15.74,-96.87 -16.20,-97.16 -16.67,-97.46 -17.01,-97.89 -17.36,-98.32 -17.55,-98.83 -17.74,-99.35 -17.75,-99.90 -17.77,-100.45 -17.61,-100.98 -17.45,-101.51 -17.13,-101.95 -16.80,-102.40 -16.36,-102.72 -15.91,-103.05 -15.38,-103.21 -14.86,-103.37 -14.31,-103.35 -13.75,-103.34 -13.24,-103.15 -12.72,-102.96 -12.29,-102.62 -11.86,-102.27 -11.56,-101.81 -11.27,-101.34 -11.13,-100.81 -11.00,-100.27 -11.00,-100.27 -11.00,-100.27 -10.98,-98.14 -10.96,-96.00 -10.88,-92.62 -10.79,-89.23 -10.21,-82.35 -9.63,-75.47 -8.83,-66.32 -8.04,-57.18 -6.77,-44.94 -5.49,-32.71 -4.17,-26.44 -2.84,-20.17 -1.38,-15.46 0.07,-10.75 1.83,-5.97 3.58,-1.19 3.68,-0.74 3.77,-0.30 3.75,0.15 3.73,0.60 3.60,1.04 3.48,1.48 3.25,1.87 3.02,2.27 2.70,2.60 2.39,2.93 2.00,3.17 1.62,3.41 1.18,3.56 0.75,3.70 0.30,3.74 -0.15,3.78 -0.60,3.70 -1.05,3.63 -1.47,3.45 -1.89,3.27 -2.25,3.00 -2.62,2.72 -2.91,2.37 -3.19,2.02 -3.39,1.60 -3.58,1.19 -3.58,1.19 L -3.58,1.19 Z"></path></g><g transform="translate(126 118) rotate(0 5.199981689453125 2.4000015258789062)" stroke="none"><path fill="#1e1e1e" d="M 1.82,-4.57 Q 1.82,-4.57 4.14,-3.69 6.46,-2.82 9.66,-1.33 12.86,0.14 13.54,0.65 14.22,1.17 14.70,1.88 15.18,2.58 15.40,3.40 15.63,4.22 15.59,5.07 15.54,5.93 15.23,6.72 14.91,7.51 14.36,8.16 13.81,8.81 13.08,9.25 12.35,9.69 11.51,9.87 10.68,10.06 9.83,9.96 8.99,9.87 8.21,9.51 7.44,9.16 6.82,8.57 6.20,7.98 5.80,7.23 5.40,6.48 5.26,5.64 5.13,4.80 5.26,3.95 5.40,3.11 5.80,2.36 6.20,1.61 6.82,1.02 7.44,0.43 8.21,0.08 8.98,-0.27 9.83,-0.36 10.68,-0.46 11.51,-0.27 12.34,-0.09 13.08,0.34 13.81,0.78 14.36,1.43 14.91,2.08 15.23,2.87 15.54,3.66 15.59,4.51 15.63,5.36 15.41,6.19 15.18,7.01 14.70,7.71 14.22,8.42 13.54,8.93 12.86,9.45 12.06,9.72 11.25,9.99 10.40,9.99 9.54,9.99 8.74,9.72 7.93,9.45 7.93,9.45 7.93,9.45 5.33,7.97 2.73,6.50 0.45,5.53 -1.82,4.57 -2.34,4.28 -2.86,3.99 -3.30,3.59 -3.74,3.19 -4.07,2.70 -4.39,2.20 -4.59,1.65 -4.79,1.09 -4.86,0.50 -4.92,-0.08 -4.83,-0.67 -4.75,-1.26 -4.53,-1.81 -4.31,-2.36 -3.97,-2.84 -3.62,-3.33 -3.17,-3.71 -2.72,-4.10 -2.19,-4.36 -1.66,-4.63 -1.08,-4.76 -0.50,-4.89 0.08,-4.88 0.68,-4.87 1.25,-4.72 1.82,-4.57 1.82,-4.57 L 1.82,-4.57 Z"></path></g><g transform="translate(210.79998779296875 103.60003662109375) rotate(0 8 -23.20001220703125)" stroke="none"><path fill="#1e1e1e" d="M -4.17,-1.20 Q -4.17,-1.20 -1.42,-9.88 1.32,-18.56 3.50,-24.59 5.67,-30.62 7.08,-34.53 8.48,-38.44 9.38,-41.00 10.28,-43.57 11.36,-44.15 12.44,-44.72 12.68,-45.12 12.91,-45.53 13.24,-45.86 13.56,-46.20 13.95,-46.44 14.35,-46.69 14.79,-46.84 15.23,-46.98 15.70,-47.02 16.16,-47.06 16.62,-46.98 17.08,-46.90 17.51,-46.72 17.94,-46.54 18.31,-46.25 18.68,-45.97 18.98,-45.61 19.27,-45.25 19.47,-44.83 19.67,-44.41 19.76,-43.95 19.85,-43.49 19.83,-43.03 19.81,-42.56 19.68,-42.12 19.55,-41.67 19.69,-42.21 19.83,-42.75 19.66,-42.14 19.49,-41.54 19.13,-41.03 18.78,-40.51 18.28,-40.14 17.78,-39.77 17.18,-39.57 16.59,-39.38 15.96,-39.38 15.34,-39.39 14.75,-39.59 14.16,-39.79 13.66,-40.18 13.17,-40.56 12.82,-41.08 12.47,-41.60 12.31,-42.20 12.15,-42.81 12.19,-43.43 12.23,-44.06 12.46,-44.64 12.70,-45.22 13.11,-45.69 13.52,-46.16 14.06,-46.48 14.59,-46.80 15.21,-46.93 15.82,-47.06 16.44,-46.98 17.06,-46.91 17.63,-46.64 18.19,-46.38 18.64,-45.94 19.09,-45.51 19.38,-44.95 19.67,-44.40 19.76,-43.78 19.86,-43.16 19.75,-42.55 19.65,-41.93 19.35,-41.38 19.05,-40.83 18.59,-40.40 18.14,-39.98 17.57,-39.72 17.00,-39.46 16.38,-39.40 15.75,-39.34 15.14,-39.48 14.53,-39.62 14.00,-39.94 13.47,-40.27 13.07,-40.75 12.67,-41.23 12.44,-41.81 12.21,-42.40 12.33,-43.56 12.44,-44.72 12.68,-45.12 12.91,-45.53 13.24,-45.86 13.56,-46.20 13.95,-46.44 14.35,-46.69 14.79,-46.84 15.23,-46.98 15.70,-47.02 16.16,-47.06 16.62,-46.98 17.08,-46.90 17.51,-46.72 17.94,-46.54 18.31,-46.26 18.68,-45.97 18.98,-45.61 19.27,-45.25 19.47,-44.83 19.67,-44.41 19.76,-43.95 19.85,-43.49 19.83,-43.03 19.81,-42.56 19.68,-42.12 19.55,-41.67 18.33,-41.15 17.11,-40.63 15.98,-38.48 14.85,-36.32 13.63,-32.35 12.42,-28.39 10.60,-22.39 8.79,-16.39 6.48,-7.59 4.17,1.20 3.96,1.69 3.76,2.17 3.44,2.59 3.13,3.01 2.72,3.34 2.32,3.67 1.85,3.89 1.37,4.12 0.86,4.22 0.35,4.33 -0.17,4.31 -0.69,4.28 -1.19,4.14 -1.70,3.99 -2.15,3.73 -2.61,3.47 -2.98,3.11 -3.36,2.74 -3.64,2.30 -3.92,1.86 -4.09,1.36 -4.25,0.86 -4.30,0.34 -4.34,-0.17 -4.25,-0.69 -4.17,-1.20 -4.17,-1.20 L -4.17,-1.20 Z"></path></g><g transform="translate(246 108.40000915527344) rotate(0 46.399993896484375 -44)" stroke="none"><path fill="#1e1e1e" d="M -2.32,-2.32 Q -2.32,-2.32 1.88,-6.40 6.08,-10.47 12.80,-16.17 19.51,-21.87 25.54,-27.21 31.57,-32.56 37.66,-37.41 43.75,-42.25 50.64,-48.38 57.52,-54.50 62.52,-59.17 67.52,-63.83 71.77,-67.47 76.03,-71.11 79.30,-74.80 82.57,-78.50 84.53,-81.30 86.49,-84.09 88.24,-87.01 90.00,-89.93 90.38,-90.32 90.77,-90.72 91.25,-90.97 91.74,-91.23 92.29,-91.31 92.83,-91.39 93.37,-91.30 93.91,-91.20 94.39,-90.94 94.88,-90.68 95.25,-90.28 95.63,-89.87 95.85,-89.37 96.08,-88.87 96.13,-88.32 96.19,-87.78 96.06,-87.24 95.94,-86.71 95.65,-86.24 95.36,-85.77 94.94,-85.42 94.52,-85.07 94.01,-84.87 93.49,-84.67 92.94,-84.64 92.39,-84.62 91.87,-84.77 91.34,-84.93 90.89,-85.24 90.43,-85.55 90.11,-85.99 89.78,-86.43 89.61,-86.96 89.44,-87.48 89.44,-88.03 89.45,-88.58 89.63,-89.10 89.81,-89.62 90.15,-90.05 90.48,-90.49 90.94,-90.79 91.40,-91.09 91.93,-91.23 92.46,-91.38 93.01,-91.34 93.56,-91.31 94.07,-91.10 94.58,-90.89 94.99,-90.53 95.41,-90.17 95.69,-89.69 95.96,-89.22 96.08,-88.68 96.19,-88.14 96.12,-87.60 96.06,-87.05 95.82,-86.56 95.59,-86.06 95.59,-86.06 95.59,-86.06 93.39,-83.27 91.20,-80.48 88.89,-77.72 86.58,-74.95 83.06,-70.99 79.55,-67.02 75.40,-63.44 71.25,-59.86 66.22,-55.12 61.20,-50.39 54.24,-44.13 47.27,-37.87 41.35,-33.07 35.42,-28.27 29.41,-22.81 23.39,-17.36 16.93,-11.72 10.47,-6.08 6.39,-1.87 2.32,2.32 2.01,2.56 1.69,2.81 1.33,2.97 0.97,3.13 0.58,3.20 0.19,3.27 -0.19,3.25 -0.59,3.23 -0.97,3.11 -1.34,2.99 -1.68,2.79 -2.02,2.58 -2.30,2.30 -2.58,2.02 -2.79,1.68 -2.99,1.34 -3.11,0.97 -3.23,0.59 -3.25,0.19 -3.27,-0.19 -3.20,-0.58 -3.13,-0.97 -2.97,-1.33 -2.81,-1.70 -2.56,-2.01 -2.32,-2.32 -2.32,-2.32 L -2.32,-2.32 Z"></path></g><g transform="translate(286.79998779296875 125.20001220703125) rotate(0 36 -20)" stroke="none"><path fill="#1e1e1e" d="M -2.11,-3.16 Q -2.11,-3.16 2.11,-5.79 6.34,-8.42 10.50,-10.90 14.66,-13.38 20.91,-16.52 27.17,-19.67 32.56,-22.34 37.94,-25.01 42.85,-27.09 47.75,-29.16 52.22,-31.56 56.70,-33.97 59.71,-35.82 62.72,-37.66 66.55,-40.49 70.38,-43.31 70.95,-43.48 71.53,-43.65 72.12,-43.63 72.72,-43.61 73.28,-43.40 73.84,-43.19 74.30,-42.81 74.76,-42.44 75.08,-41.93 75.39,-41.42 75.53,-40.84 75.67,-40.26 75.62,-39.67 75.57,-39.08 75.33,-38.53 75.09,-37.98 74.68,-37.54 74.28,-37.10 73.76,-36.81 73.24,-36.52 72.65,-36.42 72.07,-36.31 71.47,-36.39 70.88,-36.48 70.35,-36.75 69.82,-37.02 69.40,-37.44 68.98,-37.87 68.72,-38.40 68.46,-38.94 68.39,-39.53 68.31,-40.12 68.43,-40.71 68.54,-41.29 68.84,-41.81 69.14,-42.33 69.59,-42.72 70.03,-43.12 70.58,-43.35 71.13,-43.58 71.73,-43.62 72.32,-43.67 72.90,-43.52 73.48,-43.37 73.98,-43.04 74.48,-42.72 74.85,-42.25 75.22,-41.78 75.42,-41.22 75.62,-40.66 75.63,-40.06 75.64,-39.47 75.46,-38.90 75.28,-38.33 74.93,-37.85 74.58,-37.37 74.09,-37.02 73.61,-36.68 73.61,-36.68 73.61,-36.68 71.67,-35.60 69.73,-34.52 67.73,-33.44 65.72,-32.36 62.55,-30.70 59.38,-29.05 54.71,-26.47 50.03,-23.89 45.33,-21.81 40.63,-19.73 35.31,-16.96 30.00,-14.19 24.06,-11.03 18.13,-7.86 14.17,-5.24 10.21,-2.61 6.16,0.27 2.11,3.16 1.70,3.37 1.29,3.58 0.84,3.68 0.39,3.78 -0.06,3.77 -0.52,3.77 -0.96,3.65 -1.40,3.53 -1.81,3.31 -2.21,3.09 -2.55,2.78 -2.89,2.47 -3.14,2.09 -3.39,1.71 -3.55,1.28 -3.71,0.85 -3.75,0.39 -3.80,-0.06 -3.74,-0.51 -3.68,-0.97 -3.51,-1.39 -3.34,-1.82 -3.07,-2.19 -2.80,-2.57 -2.46,-2.86 -2.11,-3.16 -2.11,-3.16 L -2.11,-3.16 Z"></path></g><g transform="translate(330 165.1999969482422) rotate(0 19.600006103515625 -6.79998779296875)" stroke="none"><path fill="#1e1e1e" d="M -1.40,-4.79 Q -1.40,-4.79 2.57,-5.69 6.55,-6.59 9.43,-7.37 12.31,-8.15 15.07,-8.94 17.83,-9.72 20.23,-10.38 22.63,-11.03 25.80,-12.08 28.96,-13.13 30.76,-14.54 32.56,-15.94 34.36,-17.24 36.16,-18.54 37.03,-18.90 37.90,-19.25 38.83,-19.31 39.77,-19.37 40.68,-19.13 41.58,-18.88 42.37,-18.36 43.15,-17.84 43.72,-17.10 44.30,-16.36 44.61,-15.47 44.91,-14.58 44.92,-13.65 44.93,-12.71 44.64,-11.81 44.35,-10.92 43.78,-10.17 43.22,-9.42 42.45,-8.88 41.68,-8.35 40.78,-8.09 39.87,-7.83 38.94,-7.87 38.00,-7.92 37.12,-8.26 36.25,-8.60 35.53,-9.20 34.81,-9.80 34.31,-10.60 33.82,-11.40 33.61,-12.31 33.40,-13.23 33.50,-14.16 33.59,-15.10 33.98,-15.95 34.36,-16.81 35.00,-17.50 35.64,-18.18 36.47,-18.63 37.29,-19.08 38.22,-19.24 39.14,-19.40 40.07,-19.25 41.00,-19.11 41.83,-18.68 42.67,-18.25 43.32,-17.57 43.97,-16.89 44.37,-16.04 44.77,-15.20 44.88,-14.26 44.99,-13.33 44.80,-12.41 44.60,-11.49 44.13,-10.69 43.65,-9.88 42.94,-9.26 42.23,-8.65 42.23,-8.65 42.23,-8.65 40.09,-7.24 37.95,-5.84 34.87,-4.52 31.79,-3.19 28.31,-2.45 24.84,-1.72 22.55,-1.26 20.27,-0.81 17.42,-0.06 14.57,0.68 11.82,1.33 9.08,1.99 5.24,3.39 1.40,4.79 0.81,4.88 0.22,4.98 -0.37,4.94 -0.97,4.89 -1.55,4.70 -2.12,4.52 -2.63,4.20 -3.14,3.88 -3.56,3.44 -3.97,3.01 -4.28,2.49 -4.58,1.97 -4.75,1.39 -4.92,0.82 -4.95,0.21 -4.97,-0.38 -4.86,-0.97 -4.74,-1.56 -4.48,-2.10 -4.23,-2.65 -3.85,-3.11 -3.47,-3.58 -2.99,-3.95 -2.51,-4.31 -1.96,-4.55 -1.40,-4.79 -1.40,-4.79 L -1.40,-4.79 Z"></path></g><g transform="translate(226.79998779296875 286.8000030517578) rotate(0 4.399993896484375 40)" stroke="none"><path fill="#1e1e1e" d="M 5.10,0 Q 5.10,0 5.06,2.98 5.03,5.97 5.27,8.41 5.51,10.84 5.59,13.94 5.67,17.04 5.97,19.25 6.27,21.46 6.65,23.78 7.02,26.10 7.24,28.46 7.47,30.82 8.01,34.60 8.54,38.38 8.93,41.23 9.31,44.08 9.90,47.83 10.49,51.58 10.65,55.29 10.81,59.00 11.21,61.56 11.62,64.12 12.17,66.62 12.72,69.12 13.26,71.53 13.80,73.93 13.76,73.81 13.73,73.69 14.22,74.35 14.71,75.01 15.03,75.77 15.35,76.52 15.47,77.34 15.60,78.15 15.53,78.96 15.46,79.78 15.20,80.56 14.94,81.34 14.50,82.03 14.06,82.72 13.46,83.29 12.87,83.86 12.15,84.26 11.44,84.67 10.65,84.90 9.86,85.12 9.04,85.15 8.22,85.18 7.42,85.02 6.61,84.85 5.87,84.49 5.13,84.14 4.50,83.62 3.86,83.10 3.20,79.40 2.54,75.70 3.13,74.78 3.72,73.85 4.58,73.16 5.44,72.47 6.48,72.09 7.51,71.70 8.61,71.67 9.71,71.64 10.77,71.97 11.82,72.29 12.72,72.93 13.61,73.58 14.25,74.47 14.90,75.37 15.22,76.42 15.54,77.47 15.52,78.58 15.49,79.68 15.11,80.71 14.73,81.75 14.04,82.61 13.34,83.47 12.42,84.06 11.49,84.65 10.42,84.92 9.35,85.18 8.25,85.10 7.15,85.01 6.14,84.57 5.13,84.14 4.31,83.40 3.49,82.66 2.94,81.70 2.40,80.74 2.19,79.66 1.99,78.58 2.13,77.49 2.28,76.40 2.77,75.41 3.26,74.42 4.04,73.64 4.82,72.86 5.81,72.37 6.80,71.88 7.89,71.73 8.98,71.59 10.06,71.79 11.14,72.00 12.10,72.54 13.06,73.09 13.80,73.91 14.54,74.73 14.97,75.74 15.41,76.75 15.50,77.85 15.58,78.95 14.66,76.32 13.73,73.69 14.22,74.35 14.71,75.01 15.03,75.77 15.35,76.52 15.47,77.33 15.60,78.15 15.53,78.96 15.46,79.78 15.20,80.56 14.94,81.34 14.50,82.03 14.06,82.72 13.46,83.29 12.87,83.86 12.15,84.26 11.44,84.67 10.65,84.90 9.86,85.12 9.04,85.15 8.22,85.18 7.42,85.02 6.61,84.85 5.87,84.49 5.13,84.14 4.50,83.62 3.86,83.10 2.70,80.56 1.54,78.03 1.36,75.89 1.17,73.74 0.56,71.03 -0.04,68.32 -0.42,65.79 -0.80,63.27 -1.04,59.60 -1.27,55.93 -1.36,52.98 -1.44,50.03 -1.99,46.22 -2.53,42.40 -2.56,39.06 -2.60,35.72 -2.92,31.65 -3.24,27.58 -3.56,25.09 -3.88,22.60 -4.12,19.99 -4.36,17.38 -4.47,14.55 -4.59,11.71 -4.81,8.85 -5.03,5.98 -5.06,2.99 -5.10,0 -5.02,-0.61 -4.95,-1.22 -4.73,-1.79 -4.51,-2.37 -4.16,-2.87 -3.81,-3.38 -3.35,-3.79 -2.89,-4.19 -2.35,-4.48 -1.80,-4.77 -1.21,-4.91 -0.61,-5.06 0.00,-5.06 0.61,-5.06 1.21,-4.91 1.80,-4.77 2.35,-4.48 2.89,-4.19 3.35,-3.79 3.82,-3.38 4.16,-2.87 4.51,-2.37 4.73,-1.79 4.95,-1.22 5.02,-0.61 5.10,0.00 5.10,0.00 L 5.10,0 Z"></path></g><g transform="translate(10 278.00001525878906) rotate(0 116.39999389648438 46.399993896484375)" stroke="none"><path fill="#1e1e1e" d="M 0.86,-3.00 Q 0.86,-3.00 11.19,0.05 21.52,3.10 30.55,6.04 39.57,8.98 48.07,12.34 56.57,15.70 67.05,19.89 77.52,24.08 85.73,27.97 93.93,31.85 100.83,35.11 107.73,38.36 114.57,41.59 121.42,44.81 126.54,46.84 131.67,48.87 136.45,50.92 141.22,52.96 144.52,54.41 147.81,55.86 150.34,56.77 152.88,57.68 155.12,58.76 157.37,59.84 160.58,61.35 163.80,62.86 166.48,63.91 169.16,64.97 172.72,66.38 176.29,67.80 179.96,68.78 183.64,69.76 188.54,71.58 193.45,73.40 195.47,74.28 197.50,75.15 201.11,76.35 204.72,77.54 206.85,78.02 208.98,78.50 211.51,79.24 214.04,79.98 216.81,80.79 219.58,81.59 222.85,82.54 226.12,83.48 228.86,84.32 231.60,85.17 233.28,86.14 234.97,87.11 235.82,87.60 236.67,88.10 237.32,88.84 237.96,89.58 238.34,90.49 238.72,91.40 238.79,92.38 238.85,93.37 238.60,94.32 238.35,95.27 237.81,96.09 237.27,96.92 236.50,97.52 235.72,98.13 234.79,98.46 233.87,98.79 232.88,98.80 231.90,98.81 230.96,98.51 230.02,98.21 229.23,97.63 228.44,97.04 227.87,96.24 227.31,95.43 227.03,94.49 226.75,93.54 226.79,92.56 226.83,91.57 227.18,90.65 227.54,89.73 228.16,88.97 228.79,88.21 229.62,87.69 230.46,87.17 231.42,86.95 232.38,86.72 233.36,86.82 234.34,86.91 235.24,87.31 236.14,87.71 236.86,88.38 237.59,89.04 238.06,89.91 238.53,90.77 238.71,91.74 238.88,92.71 238.73,93.68 238.59,94.66 238.14,95.53 237.69,96.41 236.99,97.10 236.28,97.78 235.39,98.21 234.51,98.64 233.53,98.76 232.55,98.88 231.59,98.68 230.62,98.48 230.62,98.48 230.62,98.48 228.80,97.40 226.98,96.31 224.75,95.33 222.53,94.34 219.65,93.26 216.78,92.17 213.85,91.47 210.91,90.77 208.69,90.13 206.46,89.49 203.88,88.89 201.30,88.29 197.16,86.77 193.01,85.24 189.04,83.29 185.08,81.35 182.83,80.76 180.57,80.18 178.17,79.46 175.77,78.74 172.42,77.21 169.08,75.68 165.52,74.02 161.97,72.36 159.16,70.41 156.36,68.46 153.25,66.13 150.13,63.80 147.68,62.47 145.22,61.15 142.18,59.49 139.14,57.84 134.43,55.84 129.72,53.83 124.43,51.75 119.14,49.66 112.29,46.46 105.44,43.25 98.52,40.02 91.61,36.79 83.54,33.00 75.48,29.22 65.00,25.08 54.52,20.95 46.16,17.72 37.81,14.49 28.84,11.67 19.87,8.85 9.50,5.92 -0.86,3.00 -1.21,2.85 -1.56,2.70 -1.86,2.48 -2.16,2.25 -2.40,1.96 -2.63,1.67 -2.80,1.33 -2.96,0.99 -3.03,0.62 -3.11,0.25 -3.09,-0.12 -3.08,-0.49 -2.97,-0.86 -2.87,-1.22 -2.68,-1.54 -2.49,-1.87 -2.23,-2.14 -1.97,-2.41 -1.65,-2.62 -1.34,-2.82 -0.98,-2.94 -0.62,-3.06 -0.25,-3.09 0.12,-3.12 0.49,-3.06 0.86,-3.00 0.86,-3.00 L 0.86,-3.00 Z"></path></g><g transform="translate(242.79998779296875 370.8000030517578) rotate(0 91.60000610351562 -77.19999694824219)" stroke="none"><path fill="#1e1e1e" d="M -1.89,-2.70 Q -1.89,-2.70 2.75,-5.85 7.40,-8.99 10.95,-11.65 14.50,-14.30 19.55,-17.77 24.60,-21.24 28.99,-24.49 33.38,-27.75 38.95,-31.90 44.52,-36.04 48.99,-39.20 53.46,-42.36 56.68,-44.84 59.89,-47.32 63.31,-50.16 66.73,-53.00 69.22,-55.45 71.71,-57.89 74.09,-60.34 76.48,-62.79 80.01,-65.46 83.54,-68.12 86.51,-70.77 89.48,-73.42 92.88,-76.38 96.28,-79.34 99.06,-81.84 101.83,-84.34 104.04,-86.59 106.24,-88.83 108.58,-91.04 110.91,-93.24 112.94,-95.31 114.97,-97.39 117.35,-99.37 119.72,-101.35 121.77,-103.10 123.82,-104.85 125.59,-106.37 127.36,-107.88 129.44,-109.63 131.51,-111.39 133.20,-113.03 134.89,-114.66 137.53,-117.23 140.17,-119.80 141.77,-122.49 143.38,-125.18 144.83,-126.84 146.28,-128.49 148.20,-130.35 150.12,-132.21 151.95,-134.51 153.77,-136.81 155.18,-138.53 156.59,-140.24 159.13,-142.35 161.66,-144.46 164.06,-146.94 166.45,-149.43 168.89,-151.65 171.33,-153.88 173.51,-155.63 175.69,-157.38 177.25,-158.28 178.82,-159.19 179.55,-159.56 180.28,-159.93 181.08,-160.12 181.87,-160.31 182.69,-160.31 183.51,-160.30 184.31,-160.09 185.10,-159.89 185.82,-159.50 186.55,-159.12 187.16,-158.57 187.76,-158.02 188.22,-157.34 188.68,-156.66 188.97,-155.89 189.25,-155.12 189.34,-154.31 189.43,-153.49 189.33,-152.68 189.22,-151.87 188.92,-151.10 188.63,-150.34 188.15,-149.67 187.68,-149.00 187.06,-148.46 186.45,-147.92 187.82,-148.63 189.20,-149.33 188.98,-148.25 188.76,-147.17 188.20,-146.22 187.65,-145.27 186.82,-144.54 185.99,-143.82 184.98,-143.39 183.96,-142.97 182.86,-142.89 181.76,-142.82 180.70,-143.10 179.63,-143.37 178.71,-143.98 177.79,-144.58 177.11,-145.45 176.43,-146.32 176.06,-147.35 175.69,-148.39 175.68,-149.49 175.66,-150.59 176.00,-151.64 176.33,-152.69 176.99,-153.58 177.64,-154.47 178.54,-155.10 179.44,-155.73 180.50,-156.04 181.56,-156.35 182.66,-156.31 183.76,-156.26 184.79,-155.87 185.82,-155.48 186.67,-154.78 187.52,-154.08 188.10,-153.14 188.68,-152.21 188.93,-151.14 189.19,-150.07 189.08,-148.97 188.98,-147.87 188.53,-146.87 188.09,-145.86 187.34,-145.05 186.60,-144.24 185.63,-143.71 184.67,-143.18 183.58,-142.98 182.50,-142.79 181.41,-142.95 180.32,-143.11 179.34,-143.61 178.36,-144.11 177.59,-144.90 176.82,-145.69 176.34,-146.68 175.86,-147.68 175.73,-148.77 175.59,-149.86 175.59,-149.86 175.59,-149.86 177.21,-154.52 178.82,-159.19 179.55,-159.56 180.28,-159.93 181.08,-160.12 181.87,-160.31 182.69,-160.31 183.51,-160.30 184.31,-160.09 185.10,-159.89 185.82,-159.50 186.55,-159.12 187.15,-158.57 187.76,-158.02 188.22,-157.34 188.68,-156.66 188.97,-155.89 189.25,-155.12 189.34,-154.31 189.43,-153.49 189.33,-152.68 189.22,-151.87 188.92,-151.10 188.63,-150.34 188.15,-149.67 187.68,-149.00 187.06,-148.46 186.45,-147.92 184.27,-146.55 182.09,-145.17 180.19,-143.79 178.30,-142.41 176.29,-140.36 174.29,-138.30 172.42,-136.64 170.54,-134.98 168.46,-133.69 166.37,-132.40 164.69,-130.49 163.02,-128.58 161.12,-126.86 159.22,-125.14 157.49,-123.62 155.77,-122.10 154.09,-120.66 152.42,-119.22 151.14,-117.35 149.85,-115.49 148.30,-113.68 146.75,-111.88 144.01,-109.75 141.27,-107.61 139.29,-105.93 137.31,-104.24 135.07,-102.50 132.84,-100.76 130.96,-99.47 129.08,-98.18 126.88,-96.57 124.68,-94.97 122.45,-93.38 120.23,-91.79 117.94,-89.80 115.65,-87.81 113.24,-85.86 110.82,-83.91 108.34,-81.80 105.85,-79.68 103.01,-77.33 100.17,-74.99 96.85,-71.95 93.53,-68.91 90.42,-66.11 87.32,-63.30 84.13,-60.71 80.94,-58.13 78.34,-55.79 75.74,-53.46 72.99,-51.14 70.24,-48.82 66.75,-45.87 63.25,-42.91 59.94,-40.41 56.63,-37.91 52.23,-34.77 47.84,-31.62 42.31,-27.43 36.77,-23.24 32.34,-19.87 27.91,-16.50 23.03,-13.03 18.15,-9.57 14.57,-6.72 10.99,-3.88 6.44,-0.58 1.89,2.70 1.54,2.89 1.19,3.08 0.80,3.18 0.42,3.28 0.02,3.28 -0.37,3.28 -0.76,3.19 -1.15,3.10 -1.50,2.91 -1.86,2.73 -2.16,2.47 -2.46,2.20 -2.69,1.88 -2.91,1.55 -3.06,1.18 -3.20,0.81 -3.25,0.41 -3.30,0.02 -3.26,-0.37 -3.21,-0.77 -3.07,-1.14 -2.93,-1.51 -2.71,-1.84 -2.49,-2.17 -2.19,-2.44 -1.89,-2.71 -1.89,-2.70 L -1.89,-2.70 Z"></path></g><g transform="translate(238 374.8000030517578) rotate(0 -67.20001220703125 56.800018310546875)" stroke="none"><path fill="#1e1e1e" d="M 4.76,-0.62 Q 4.76,-0.62 5.17,4.70 5.58,10.03 6.03,13.64 6.48,17.25 7.00,20.14 7.52,23.03 7.84,25.56 8.16,28.10 8.52,31.43 8.88,34.76 9.14,37.06 9.40,39.35 8.50,42.75 7.61,46.16 5.10,47.78 2.58,49.39 -1.93,50.80 -6.46,52.22 -9.34,53.23 -12.22,54.24 -15.44,55.54 -18.65,56.83 -23.61,58.79 -28.56,60.74 -33.12,63.02 -37.67,65.29 -41.78,67.37 -45.89,69.46 -50.72,71.71 -55.56,73.96 -59.15,75.80 -62.74,77.64 -66.41,79.38 -70.08,81.12 -72.93,82.65 -75.77,84.19 -78.62,85.61 -81.46,87.03 -84.37,88.69 -87.27,90.35 -90.35,91.70 -93.43,93.06 -95.77,94.14 -98.11,95.23 -100.85,96.55 -103.59,97.86 -106.64,99.95 -109.70,102.04 -111.62,103.33 -113.53,104.61 -116.94,106.63 -120.34,108.64 -123.46,110.51 -126.58,112.39 -129.29,114.11 -132.00,115.83 -132.14,117.41 -132.27,118.98 -132.96,119.25 -133.64,119.52 -134.38,119.62 -135.11,119.72 -135.84,119.65 -136.58,119.57 -137.27,119.31 -137.97,119.06 -138.58,118.65 -139.19,118.24 -139.69,117.69 -140.19,117.15 -140.54,116.50 -140.89,115.85 -141.08,115.13 -141.27,114.42 -141.28,113.68 -141.29,112.94 -141.12,112.22 -140.96,111.50 -140.62,110.84 -140.29,110.18 -139.81,109.62 -139.32,109.06 -138.72,108.64 -138.12,108.21 -135.54,108.05 -132.97,107.89 -132.11,108.39 -131.26,108.90 -130.61,109.65 -129.97,110.40 -129.59,111.32 -129.22,112.24 -129.16,113.23 -129.10,114.22 -129.36,115.17 -129.61,116.13 -130.17,116.95 -130.72,117.78 -131.50,118.38 -132.29,118.99 -133.22,119.31 -134.16,119.64 -135.15,119.64 -136.14,119.65 -137.09,119.34 -138.03,119.03 -138.82,118.44 -139.62,117.84 -140.18,117.02 -140.74,116.21 -141.01,115.25 -141.28,114.30 -141.24,113.31 -141.19,112.32 -140.83,111.39 -140.47,110.47 -139.83,109.71 -139.19,108.95 -138.35,108.43 -137.50,107.92 -136.54,107.70 -135.57,107.48 -134.58,107.58 -133.60,107.68 -132.69,108.09 -131.79,108.50 -131.07,109.18 -130.34,109.85 -129.87,110.73 -129.40,111.60 -129.23,112.58 -129.07,113.55 -129.22,114.53 -129.37,115.51 -129.83,116.39 -130.29,117.27 -131.01,117.96 -131.72,118.64 -132.62,119.07 -133.52,119.49 -134.50,119.60 -135.49,119.72 -133.88,119.35 -132.27,118.98 -132.96,119.25 -133.64,119.52 -134.38,119.62 -135.11,119.72 -135.84,119.65 -136.58,119.57 -137.27,119.31 -137.97,119.06 -138.58,118.65 -139.19,118.24 -139.69,117.69 -140.19,117.15 -140.54,116.50 -140.89,115.85 -141.08,115.13 -141.27,114.42 -141.28,113.68 -141.29,112.94 -141.12,112.22 -140.96,111.50 -140.62,110.84 -140.29,110.18 -139.81,109.62 -139.32,109.07 -138.72,108.64 -138.12,108.21 -139.05,107.87 -139.99,107.54 -136.89,105.61 -133.78,103.68 -131.51,102.77 -129.24,101.86 -127.35,100.70 -125.47,99.53 -122.10,97.93 -118.73,96.33 -114.90,94.28 -111.08,92.23 -109.12,91.21 -107.17,90.20 -104.20,88.85 -101.23,87.51 -98.80,86.67 -96.37,85.83 -93.64,84.82 -90.90,83.81 -87.71,82.07 -84.51,80.33 -81.66,79.16 -78.81,77.99 -75.83,76.67 -72.86,75.35 -69.32,73.62 -65.78,71.90 -62.17,69.92 -58.55,67.94 -53.99,65.52 -49.43,63.11 -45.50,60.71 -41.58,58.31 -36.97,55.46 -32.36,52.60 -27.67,50.06 -22.98,47.52 -19.72,45.80 -16.47,44.09 -12.79,42.36 -9.11,40.63 -5.26,40.00 -1.40,39.38 -1.19,37.20 -0.98,35.03 -0.86,31.92 -0.73,28.82 -0.79,26.57 -0.85,24.32 -1.24,21.37 -1.63,18.42 -2.22,14.77 -2.82,11.12 -3.79,5.87 -4.76,0.62 -4.76,0.04 -4.77,-0.53 -4.64,-1.10 -4.50,-1.66 -4.24,-2.17 -3.97,-2.69 -3.59,-3.13 -3.21,-3.56 -2.74,-3.90 -2.27,-4.23 -1.73,-4.44 -1.19,-4.65 -0.61,-4.72 -0.04,-4.80 0.53,-4.73 1.10,-4.67 1.65,-4.47 2.19,-4.27 2.67,-3.94 3.15,-3.62 3.54,-3.19 3.93,-2.76 4.20,-2.25 4.47,-1.74 4.62,-1.18 4.76,-0.62 4.76,-0.62 L 4.76,-0.62 Z"></path></g><g transform="translate(245.20001220703125 418.8000030517578) rotate(0 80 24.399993896484375)" stroke="none"><path fill="#1e1e1e" d="M 0,-3.63 Q 0,-3.63 5.75,-3.49 11.50,-3.36 17.97,-2.79 24.44,-2.23 33.79,-0.09 43.14,2.04 50.75,4.12 58.36,6.20 64.53,7.78 70.71,9.36 76.68,11.46 82.65,13.56 86.40,15.11 90.14,16.66 93.18,17.87 96.21,19.09 98.77,20.23 101.32,21.37 103.33,22.20 105.33,23.02 107.89,23.99 110.45,24.95 112.78,26.11 115.12,27.27 117.18,28.02 119.25,28.77 121.37,29.54 123.49,30.31 127.26,32.15 131.03,33.99 133.11,34.50 135.18,35.00 137.88,35.86 140.57,36.72 142.92,38.79 145.26,40.85 147.79,40.01 150.32,39.16 153.28,39.46 156.24,39.76 157.99,41.02 159.74,42.28 160.50,42.53 161.26,42.79 161.94,43.22 162.61,43.65 163.17,44.23 163.72,44.81 164.12,45.50 164.52,46.20 164.75,46.97 164.97,47.74 165.00,48.54 165.03,49.34 164.87,50.13 164.70,50.91 164.36,51.64 164.01,52.36 163.51,52.98 163.00,53.60 162.35,54.09 161.71,54.57 160.97,54.88 160.23,55.19 159.44,55.32 158.65,55.45 157.85,55.38 157.05,55.31 159.11,55.08 161.18,54.84 160.14,55.13 159.10,55.41 158.03,55.35 156.95,55.29 155.95,54.89 154.95,54.49 154.13,53.79 153.31,53.09 152.76,52.17 152.21,51.25 151.98,50.19 151.75,49.14 151.87,48.07 151.98,47.00 152.44,46.02 152.89,45.05 153.64,44.27 154.38,43.49 155.33,42.99 156.28,42.48 157.35,42.31 158.41,42.14 159.47,42.32 160.53,42.49 161.48,43.00 162.43,43.50 163.17,44.29 163.91,45.07 164.36,46.05 164.81,47.03 164.93,48.10 165.04,49.17 164.81,50.22 164.57,51.27 164.02,52.19 163.46,53.12 162.64,53.81 161.81,54.51 160.81,54.90 159.81,55.30 158.74,55.35 157.66,55.41 156.62,55.12 155.59,54.83 154.70,54.22 153.81,53.62 153.16,52.76 152.51,51.90 152.17,50.88 151.82,49.86 151.83,48.78 151.83,47.70 152.17,46.68 152.52,45.66 153.17,44.81 153.83,43.95 156.78,43.11 159.74,42.28 160.50,42.53 161.26,42.79 161.94,43.22 162.61,43.65 163.17,44.23 163.72,44.81 164.12,45.50 164.52,46.20 164.75,46.97 164.97,47.74 165.00,48.54 165.03,49.34 164.87,50.13 164.70,50.91 164.36,51.64 164.01,52.36 163.51,52.98 163.00,53.60 162.35,54.08 161.71,54.57 160.97,54.88 160.24,55.19 159.44,55.32 158.65,55.45 157.85,55.38 157.05,55.31 156.09,54.03 155.14,52.74 152.70,52.38 150.26,52.02 147.23,51.97 144.19,51.91 141.89,51.54 139.59,51.17 137.62,49.17 135.65,47.17 133.63,46.26 131.62,45.35 128.79,44.14 125.96,42.92 122.92,41.02 119.87,39.12 117.77,38.16 115.68,37.20 111.47,34.87 107.26,32.55 104.50,31.28 101.73,30.02 99.86,28.85 97.99,27.68 95.76,26.29 93.53,24.90 90.71,23.42 87.89,21.93 84.36,20.37 80.82,18.81 75.08,16.83 69.34,14.86 63.10,13.34 56.86,11.83 49.35,9.88 41.83,7.93 32.90,6.00 23.97,4.07 17.73,3.71 11.49,3.36 5.74,3.49 0,3.63 -0.43,3.58 -0.86,3.52 -1.27,3.37 -1.68,3.21 -2.04,2.96 -2.40,2.71 -2.69,2.39 -2.99,2.06 -3.19,1.67 -3.39,1.28 -3.50,0.86 -3.60,0.43 -3.60,-0.00 -3.60,-0.43 -3.50,-0.86 -3.39,-1.28 -3.19,-1.67 -2.99,-2.06 -2.69,-2.39 -2.40,-2.71 -2.04,-2.96 -1.68,-3.21 -1.27,-3.37 -0.86,-3.52 -0.43,-3.58 0.00,-3.63 0.00,-3.63 L 0,-3.63 Z"></path></g><g transform="translate(98.79998779296875 57.80000305175781) rotate(0 9.20001220703125 25.20000457763672)" stroke="none"><path fill="#1e1e1e" d="M 4.90,-1.44 Q 4.90,-1.44 5.79,2.54 6.69,6.52 7.63,8.64 8.57,10.75 9.36,13.08 10.15,15.42 11.56,18.10 12.97,20.79 14.01,22.95 15.05,25.12 16.21,27.60 17.37,30.09 18.45,32.80 19.52,35.51 20.40,38.61 21.28,41.72 22.96,44.97 24.65,48.22 24.83,49.27 25.02,50.33 24.86,51.39 24.69,52.45 24.20,53.40 23.71,54.35 22.94,55.10 22.17,55.84 21.20,56.30 20.23,56.76 19.16,56.89 18.10,57.01 17.05,56.79 16.00,56.57 15.08,56.03 14.16,55.48 13.45,54.67 12.75,53.86 12.35,52.87 11.94,51.88 11.87,50.81 11.80,49.74 12.08,48.71 12.36,47.67 12.95,46.78 13.54,45.89 14.39,45.23 15.24,44.57 16.25,44.22 17.26,43.87 18.33,43.86 19.40,43.85 20.42,44.18 21.44,44.51 22.30,45.15 23.16,45.79 23.77,46.68 24.38,47.56 24.68,48.59 24.97,49.62 24.92,50.69 24.88,51.76 24.49,52.76 24.10,53.76 23.42,54.58 22.73,55.40 21.82,55.96 20.91,56.52 19.86,56.77 18.82,57.01 17.75,56.90 16.68,56.79 15.71,56.35 14.73,55.91 13.95,55.18 13.16,54.45 12.65,53.51 12.14,52.57 12.14,52.57 12.14,52.57 11.87,51.49 11.59,50.40 10.21,46.85 8.82,43.30 8.05,40.50 7.29,37.70 6.91,35.10 6.53,32.51 5.12,29.89 3.71,27.26 3.06,24.61 2.41,21.95 1.11,18.12 -0.18,14.28 -1.13,11.70 -2.09,9.11 -3.49,5.27 -4.90,1.44 -5.01,0.83 -5.11,0.22 -5.06,-0.38 -5.01,-1.00 -4.82,-1.58 -4.63,-2.17 -4.30,-2.69 -3.97,-3.21 -3.53,-3.64 -3.09,-4.07 -2.55,-4.38 -2.02,-4.69 -1.43,-4.87 -0.84,-5.04 -0.22,-5.07 0.39,-5.10 0.99,-4.98 1.60,-4.85 2.15,-4.59 2.71,-4.33 3.19,-3.94 3.67,-3.55 4.04,-3.06 4.42,-2.57 4.66,-2.00 4.90,-1.44 4.90,-1.44 L 4.90,-1.44 Z"></path></g><g transform="translate(226.79998779296875 64.20001220703125) rotate(0 7.20001220703125 -20.400001525878906)" stroke="none"><path fill="#1e1e1e" d="M -5.05,-0.77 Q -5.05,-0.77 -4.55,-3.76 -4.05,-6.74 -3.60,-9.55 -3.14,-12.36 -2.45,-15.15 -1.76,-17.94 -1.92,-20.33 -2.08,-22.72 -1.22,-24.70 -0.37,-26.69 0.55,-29.28 1.48,-31.87 3.20,-34.95 4.92,-38.03 9.43,-42.41 13.94,-46.79 15.04,-46.68 16.13,-46.58 17.14,-46.13 18.14,-45.68 18.95,-44.93 19.76,-44.18 20.29,-43.22 20.82,-42.25 21.01,-41.16 21.20,-40.08 21.04,-38.99 20.87,-37.90 20.37,-36.92 19.86,-35.94 19.07,-35.18 18.28,-34.41 17.29,-33.93 16.30,-33.46 15.20,-33.33 14.11,-33.19 13.03,-33.42 11.95,-33.64 11.00,-34.20 10.05,-34.75 9.33,-35.58 8.61,-36.41 8.19,-37.43 7.77,-38.45 7.69,-39.55 7.62,-40.65 7.90,-41.71 8.18,-42.78 8.79,-43.70 9.40,-44.61 10.26,-45.29 11.13,-45.97 12.17,-46.33 13.21,-46.70 14.31,-46.71 15.41,-46.72 16.46,-46.39 17.51,-46.05 18.39,-45.39 19.28,-44.74 19.91,-43.83 20.54,-42.93 20.84,-41.87 21.15,-40.81 21.11,-39.71 21.06,-38.61 20.66,-37.59 20.27,-36.56 19.57,-35.71 18.86,-34.86 17.93,-34.28 16.99,-33.70 15.92,-33.45 14.85,-33.20 14.85,-33.20 14.85,-33.20 16.01,-33.30 17.17,-33.40 16.08,-31.43 14.98,-29.46 13.74,-27.13 12.49,-24.81 11.52,-22.74 10.54,-20.66 9.64,-17.80 8.73,-14.93 8.07,-12.65 7.41,-10.38 6.65,-7.79 5.89,-5.21 5.47,-2.21 5.05,0.77 4.88,1.37 4.72,1.96 4.41,2.50 4.11,3.03 3.68,3.48 3.26,3.93 2.74,4.26 2.23,4.60 1.64,4.80 1.06,5.00 0.45,5.05 -0.16,5.10 -0.77,5.01 -1.38,4.92 -1.94,4.68 -2.51,4.44 -3.01,4.08 -3.51,3.71 -3.90,3.24 -4.29,2.76 -4.56,2.21 -4.83,1.65 -4.96,1.05 -5.09,0.45 -5.07,-0.16 -5.05,-0.77 -5.05,-0.77 L -5.05,-0.77 Z"></path></g></svg>